# File created by Blade
# Date/Time:  Tue Jan 27 18:05:41 2015
# Frame Rate: 120.000 fps
#------------------------------------------------------
:FULLY-SPECIFIED
:DEGREES
2338
root -1.498729 31.944499 -6.587416 6.845277 19.222362 4.477682
Spine -6.440951 -4.503819 -3.812479
Head -3.356029 -31.292549 -5.019947
LeftShoulder -9.397565 14.408146 7.577321
LeftArm 26.205838 43.342790 -68.729196
LeftForeArm -3.426323 -0.000000 16.296065
LeftHand -11.200793 0.000000 -6.019510
LeftHandThumb1 -26.253704 0.000000 33.147579
RightShoulder -5.740751 27.801662 -42.786976
RightArm 95.707431 63.865336 120.040794
RightForeArm 38.773239 0.000000 133.613413
RightHand 2.312802 -0.000000 11.900654
RightHandThumb1 -24.326973 -0.000000 -32.862282
LeftUpLeg -3.387174 -7.868863 -0.717330
LeftLeg 0.580400 -0.000000 -0.000000
LeftFoot -13.530475 12.568898 -24.142287
LeftToeBase 8.718315 -0.000000 -0.000000
RightUpLeg 2.803913 -11.162714 -3.515115
RightLeg -3.716013 -0.000000 0.000000
RightFoot -16.363194 -18.663934 11.268698
RightToeBase 5.280333 -0.000000 -0.000000
2339
root -1.501123 31.944536 -6.585240 6.868648 19.257715 4.484593
Spine -6.446188 -4.517803 -3.801612
Head -3.274987 -31.428000 -5.184154
LeftShoulder -9.391403 14.385833 7.535700
LeftArm 26.202186 43.328605 -68.733307
LeftForeArm -3.397627 -0.000000 16.345175
LeftHand -11.162069 -0.000000 -6.053845
LeftHandThumb1 -26.253704 0.000000 33.147579
RightShoulder -5.878513 27.967087 -42.910092
RightArm 97.402642 63.524464 121.686448
RightForeArm 39.119617 0.000000 135.271713
RightHand 2.805353 -0.000000 12.016525
RightHandThumb1 -24.326973 -0.000000 -32.862282
LeftUpLeg -3.409172 -7.885589 -0.710901
LeftLeg 0.578408 -0.000000 -0.000000
LeftFoot -13.511216 12.552930 -24.142674
LeftToeBase 8.678508 -0.000000 -0.000000
RightUpLeg 2.793528 -11.169400 -3.508944
RightLeg -3.721181 -0.000000 0.000000
RightFoot -16.372941 -18.695523 11.278951
RightToeBase 5.251894 -0.000000 -0.000000
2340
root -1.502946 31.944011 -6.584233 6.896630 19.306217 4.487174
Spine -6.442813 -4.550188 -3.772488
Head -3.231484 -31.428678 -5.335841
LeftShoulder -9.412426 14.366212 7.469220
LeftArm 26.218936 43.328201 -68.708214
LeftForeArm -3.409011 -0.000000 16.416844
LeftHand -11.129063 -0.000000 -6.096152
LeftHandThumb1 -26.253704 0.000000 33.147579
RightShoulder -6.050951 28.151869 -43.064198
RightArm 99.087907 63.127848 123.322686
RightForeArm 39.645144 0.000000 136.898622
RightHand 3.299961 -0.000000 12.243582
RightHandThumb1 -24.326973 -0.000000 -32.862282
LeftUpLeg -3.443616 -7.912656 -0.700642
LeftLeg 0.583722 -0.000000 -0.000000
LeftFoot -13.481992 12.550124 -24.102554
LeftToeBase 8.569304 -0.000000 -0.000000
RightUpLeg 2.775680 -11.195092 -3.496254
RightLeg -3.724392 -0.000000 0.000000
RightFoot -16.384081 -18.733414 11.272409
RightToeBase 5.292174 -0.000000 -0.000000
2341
root -1.505093 31.944669 -6.581406 6.913339 19.335625 4.489280
Spine -6.450260 -4.566827 -3.752336
Head -3.121734 -31.501512 -5.519210
LeftShoulder -9.395746 14.324337 7.415948
LeftArm 26.168572 43.320949 -68.736000
LeftForeArm -3.424524 -0.000000 16.460382
LeftHand -11.133280 -0.000000 -6.071525
LeftHandThumb1 -26.253704 0.000000 33.147579
RightShoulder -6.185654 28.330892 -43.183066
RightArm 100.613194 62.730431 124.776729
RightForeArm 40.073887 0.000000 138.511658
RightHand 3.653808 -0.000000 12.403936
RightHandThumb1 -24.326973 -0.000000 -32.862282
LeftUpLeg -3.453960 -7.927907 -0.691652
LeftLeg 0.570578 -0.000000 -0.000000
LeftFoot -13.472989 12.527368 -24.124450
LeftToeBase 8.582278 -0.000000 -0.000000
RightUpLeg 2.765414 -11.194383 -3.486390
RightLeg -3.720418 -0.000000 0.000000
RightFoot -16.392791 -18.763723 11.296813
RightToeBase 5.258287 -0.000000 -0.000000
2342
root -1.507353 31.944933 -6.578413 6.931886 19.369753 4.494614
Spine -6.468912 -4.599462 -3.740132
Head -2.950918 -31.594862 -5.690708
LeftShoulder -9.376228 14.341793 7.367075
LeftArm 26.172637 43.294972 -68.737778
LeftForeArm -3.406904 -0.000000 16.500779
LeftHand -11.144747 -0.000000 -5.963728
LeftHandThumb1 -26.253704 0.000000 33.147579
RightShoulder -6.310875 28.544414 -43.267759
RightArm 101.880943 62.305754 125.889611
RightForeArm 40.492354 0.000000 140.090538
RightHand 4.216646 -0.000000 12.297949
RightHandThumb1 -24.326973 -0.000000 -32.862282
LeftUpLeg -3.470587 -7.938715 -0.683757
LeftLeg 0.568672 -0.000000 -0.000000
LeftFoot -13.438339 12.510175 -24.101929
LeftToeBase 8.537987 -0.000000 -0.000000
RightUpLeg 2.763200 -11.206181 -3.478744
RightLeg -3.731191 -0.000000 0.000000
RightFoot -16.398026 -18.799601 11.288072
RightToeBase 5.287596 -0.000000 -0.000000
2343
root -1.508765 31.944931 -6.575102 6.952388 19.401668 4.503017
Spine -6.483512 -4.613248 -3.747596
Head -2.824794 -31.693293 -5.830446
LeftShoulder -9.353808 14.338750 7.337305
LeftArm 26.192233 43.293092 -68.748027
LeftForeArm -3.418823 -0.000000 16.492097
LeftHand -11.041488 -0.000000 -6.015655
LeftHandThumb1 -26.253704 0.000000 33.147579
RightShoulder -6.442919 28.910266 -43.383545
RightArm 102.910600 62.009184 126.851530
RightForeArm 41.222579 -0.000000 141.666411
RightHand 4.798838 0.000000 12.187920
RightHandThumb1 -24.326973 -0.000000 -32.862282
LeftUpLeg -3.484508 -7.958016 -0.681308
LeftLeg 0.564282 -0.000000 -0.000000
LeftFoot -13.434302 12.492601 -24.113794
LeftToeBase 8.590382 -0.000000 -0.000000
RightUpLeg 2.763310 -11.195378 -3.475912
RightLeg -3.746085 -0.000000 0.000000
RightFoot -16.403419 -18.846380 11.300112
RightToeBase 5.271015 -0.000000 -0.000000
2344
root -1.509597 31.945224 -6.572782 6.972287 19.432482 4.511223
Spine -6.489232 -4.645513 -3.740510
Head -2.735082 -31.804545 -5.975542
LeftShoulder -9.366203 14.339159 7.278084
LeftArm 26.248431 43.301266 -68.721800
LeftForeArm -3.422659 -0.000000 16.479110
LeftHand -11.006526 0.000000 -6.122191
LeftHandThumb1 -26.253704 0.000000 33.147579
RightShoulder -6.595471 29.152137 -43.518484
RightArm 104.147379 61.567751 128.028986
RightForeArm 41.924697 -0.000000 143.203126
RightHand 5.183268 0.000000 12.366695
RightHandThumb1 -24.326973 -0.000000 -32.862282
LeftUpLeg -3.502087 -7.974063 -0.682456
LeftLeg 0.564308 -0.000000 -0.000000
LeftFoot -13.425008 12.491295 -24.127224
LeftToeBase 8.573974 -0.000000 -0.000000
RightUpLeg 2.756206 -11.207145 -3.474573
RightLeg -3.749117 -0.000000 0.000000
RightFoot -16.407248 -18.863764 11.302816
RightToeBase 5.268160 -0.000000 -0.000000
2345
root -1.510640 31.945716 -6.569637 6.983940 19.458849 4.511280
Spine -6.491014 -4.659215 -3.737386
Head -2.653868 -32.001072 -6.095687
LeftShoulder -9.383038 14.325052 7.223617
LeftArm 26.307563 43.340931 -68.688775
LeftForeArm -3.431514 0.000000 16.454432
LeftHand -10.984036 -0.000000 -6.143656
LeftHandThumb1 -26.253704 0.000000 33.147579
RightShoulder -6.748786 29.301344 -43.633048
RightArm 105.440301 61.133593 129.248687
RightForeArm 42.759627 -0.000000 144.688948
RightHand 5.754761 -0.000000 12.482366
RightHandThumb1 -24.326973 -0.000000 -32.862282
LeftUpLeg -3.513337 -8.015695 -0.670923
LeftLeg 0.568733 -0.000000 -0.000000
LeftFoot -13.422362 12.482683 -24.143396
LeftToeBase 8.603942 -0.000000 -0.000000
RightUpLeg 2.752043 -11.233559 -3.465045
RightLeg -3.746045 -0.000000 0.000000
RightFoot -16.419519 -18.873933 11.316888
RightToeBase 5.269728 -0.000000 -0.000000
2346
root -1.512294 31.945723 -6.566728 6.996552 19.490458 4.516002
Spine -6.493988 -4.689095 -3.746877
Head -2.539922 -32.126716 -6.156556
LeftShoulder -9.363595 14.336403 7.188368
LeftArm 26.351763 43.365998 -68.675458
LeftForeArm -3.425275 -0.000000 16.439014
LeftHand -11.018790 -0.000000 -6.092157
LeftHandThumb1 -26.253704 0.000000 33.147579
RightShoulder -6.897602 29.593381 -43.794069
RightArm 106.453260 60.834617 130.270683
RightForeArm 43.535646 -0.000000 146.168669
RightHand 6.452280 -0.000000 12.372119
RightHandThumb1 -24.326973 -0.000000 -32.862282
LeftUpLeg -3.528096 -8.028519 -0.665124
LeftLeg 0.575248 -0.000000 -0.000000
LeftFoot -13.406763 12.470714 -24.135488
LeftToeBase 8.544087 -0.000000 -0.000000
RightUpLeg 2.754152 -11.244080 -3.460138
RightLeg -3.752027 -0.000000 0.000000
RightFoot -16.427233 -18.901598 11.320590
RightToeBase 5.271273 -0.000000 -0.000000
2347
root -1.513536 31.946546 -6.564549 7.012127 19.510330 4.519159
Spine -6.514628 -4.692327 -3.747463
Head -2.384483 -32.363632 -6.283270
LeftShoulder -9.341768 14.352318 7.124800
LeftArm 26.422617 43.421086 -68.597783
LeftForeArm -3.455130 -0.000000 16.436911
LeftHand -11.025743 -0.000000 -6.121718
LeftHandThumb1 -26.253704 0.000000 33.147579
RightShoulder -7.046044 29.666215 -43.838239
RightArm 107.416870 60.302683 131.015146
RightForeArm 44.021302 -0.000000 147.611619
RightHand 6.940279 -0.000000 12.341301
RightHandThumb1 -24.326973 -0.000000 -32.862282
LeftUpLeg -3.547056 -8.042963 -0.658827
LeftLeg 0.587105 -0.000000 -0.000000
LeftFoot -13.400814 12.449113 -24.150158
LeftToeBase 8.584171 -0.000000 -0.000000
RightUpLeg 2.745701 -11.254678 -3.454060
RightLeg -3.752519 -0.000000 0.000000
RightFoot -16.435916 -18.917727 11.320442
RightToeBase 5.339363 -0.000000 -0.000000
